<svg width="398" height="472" fill="none" xmlns="http://www.w3.org/2000/svg"><path d="M417.754 322.005c-5.505-12.326-13.097-24.464-24.2-38.483-27.996-35.19-36.537-113.662-36.632-114.415-.38-3.763-3.037-6.868-6.548-7.997a9.628 9.628 0 00-10.06 2.728c-33.405 37.354-19.36 95.032-11.768 118.084 2.088 6.305 4.366 13.738 5.978 21.265 12.337 60.877-11.483 88.445-17.082 93.997-5.41 1.505-9.111.753-12.527-2.917-11.768-12.89-15.659-55.137-10.155-110.181 1.14-11.196.855-21.264-.759-30.673-11.608-67.654-54.171-111.051-65.007-126.27-29.799-44.035-32.836-117.332-32.931-117.99-.095-3.482-2.088-6.587-5.22-8.092-3.036-1.505-6.738-1.317-9.585.659-49.728 33.778-45.457 115.167-38.53 160.613 1.614 10.538 4.745 21.264 10.155 34.813 19.265 48.457-3.796 111.028-3.986 111.592-.19.565-.38 1.035-.475 1.6-2.942 15.431-7.876 24.652-13.381 24.652-.569 0-1.138-.094-1.803-.283-6.738-1.411-10.249-8.562-10.344-14.772-.38-80.259-80.95-107.264-81.805-107.546-3.606-1.129-7.592-.094-10.06 2.823-2.562 2.917-3.036 6.963-1.328 10.35.949 1.976 3.986 10.632 1.898 41.212-1.803 27.474-6.833 54.667-14.9 80.73C-2.47 409.98.566 469.163.756 471.986c14.74 160.243 245.262 188.322 382.073 98.043 14.994-9.88 27.237-21.171 36.252-33.591 50.489-69.627 20.785-164.188-1.327-214.433zM67.093 475.091c.285 5.175-3.701 9.597-8.92 9.88h-.57c-5.03 0-9.206-3.858-9.49-8.845-.855-13.737-.665-28.133.38-43.752.379-5.175 4.934-9.033 10.154-8.752 5.22.377 9.205 4.893 8.825 10.068-1.044 14.867-1.233 28.417-.38 41.401zm4.65-83.364c-.57 4.798-4.651 8.28-9.396 8.28-.38 0-.76 0-1.234-.095-5.124-.658-8.826-5.269-8.256-10.444l4.555-36.319c.664-5.081 5.315-8.75 10.629-8.186 5.22.659 8.92 5.363 8.256 10.538l-4.555 36.226z" fill="#3D3D3D"/></svg>