<svg aria-hidden="true" style="position: absolute; width: 0; height: 0; overflow: hidden;" version="1.1"
    xmlns="http://www.w3.org/2000/svg" xmlns:xlink="http://www.w3.org/1999/xlink">
    <defs>
        <symbol id="instagram" viewBox="0 0 64 64">
            <path fill="#000" style="fill: var(--color1, #000)"
                d="M62.904 11.447c-0.583-5.458-4.893-9.77-10.352-10.352-13.688-1.461-27.417-1.461-41.105 0-5.458 0.583-9.77 4.894-10.352 10.352-1.461 13.688-1.461 27.417 0 41.105 0.583 5.458 4.894 9.769 10.352 10.352 13.688 1.461 27.417 1.461 41.106 0 5.458-0.583 9.769-4.894 10.352-10.352 1.461-13.688 1.461-27.417 0-41.105z">
            </path>
            <path fill="#000" style="fill: var(--color1, #000)"
                d="M59.423 13.762c-0.517-4.843-4.342-8.669-9.185-9.186-12.147-1.296-24.329-1.296-36.476 0-4.843 0.517-8.669 4.343-9.186 9.186-1.296 12.146-1.296 24.329 0 36.475 0.517 4.844 4.343 8.669 9.186 9.186 12.147 1.296 24.329 1.296 36.475 0 4.844-0.517 8.669-4.342 9.186-9.186 1.297-12.146 1.297-24.329 0-36.475z">
            </path>
            <path fill="#000" style="fill: var(--color1, #000)"
                d="M0.959 51.226c0.044 0.442 0.089 0.885 0.137 1.327 0.583 5.458 4.894 9.769 10.352 10.352 13.688 1.461 27.417 1.461 41.105 0 5.458-0.583 9.769-4.894 10.352-10.352 0.047-0.442 0.093-0.885 0.137-1.327h-62.082z">
            </path>
            <path fill="#000" style="fill: var(--color1, #000)"
                d="M62.904 52.553c0.785-7.355 1.147-14.722 1.089-22.087l-14.629-14.629c-1.828-2.086-4.497-3.389-7.634-3.502-6.451-0.232-12.922-0.221-19.373 0.001-5.358 0.185-9.105 3.786-10.066 9.080-0.169 0.935-0.271 1.881-0.404 2.823v15.519c0.074 0.503 0.182 1.004 0.216 1.509 0.215 3.22 1.538 5.978 3.657 7.843l14.887 14.886c7.306 0.051 14.612-0.312 21.907-1.091 5.458-0.583 9.769-4.894 10.352-10.352z">
            </path>
            <path fill="#000" style="fill: var(--color1, #000)"
                d="M62.904 52.553c-0.582 5.458-4.894 9.77-10.352 10.352-7.295 0.778-14.602 1.142-21.907 1.091l-14.864-14.864c1.723 1.508 3.969 2.427 6.576 2.525 6.45 0.242 12.923 0.236 19.373 0.003 5.834-0.211 10.056-4.529 10.238-10.363 0.194-6.194 0.194-12.405 0-18.599-0.083-2.691-1.028-5.059-2.594-6.851l14.62 14.62c0.058 7.365-0.305 14.732-1.089 22.087z">
            </path>
            <path fill="#000" style="fill: var(--color1, #000)"
                d="M39.552 25.070c-1.874-2.041-4.563-3.321-7.552-3.321-5.661 0-10.251 4.59-10.251 10.251 0 2.989 1.28 5.678 3.321 7.552l23.717 23.717c1.255-0.109 2.511-0.231 3.765-0.365 5.458-0.583 9.769-4.894 10.352-10.352 0.134-1.254 0.255-2.51 0.365-3.765l-23.717-23.717z">
            </path>
            <path fill="#000" style="fill: var(--color1, #000)"
                d="M63.876 38.894l-19.088-19.087c-0.445-0.584-1.147-0.964-1.939-0.964-1.347 0-2.439 1.092-2.439 2.439 0 0.791 0.379 1.493 0.964 1.939l22.16 22.161c0.15-2.162 0.264-4.324 0.341-6.487z">
            </path>
            <path fill="#000" style="fill: var(--color1, #000)"
                d="M11.886 24.238c0.133-0.941 0.235-1.888 0.404-2.823 0.96-5.293 4.708-8.895 10.066-9.080 6.452-0.222 12.923-0.233 19.373-0.001 5.832 0.21 10.056 4.528 10.238 10.362 0.194 6.195 0.194 12.405 0 18.6-0.182 5.834-4.404 10.152-10.237 10.362-6.451 0.233-12.923 0.239-19.373-0.003-5.833-0.219-9.865-4.547-10.255-10.39-0.034-0.505-0.142-1.006-0.216-1.509 0-5.173 0-10.346 0-15.518zM32.005 48.201c2.952 0 5.907 0.088 8.855-0.021 4.623-0.171 7.466-2.93 7.574-7.548 0.134-5.754 0.134-11.517 0-17.271-0.108-4.617-2.953-7.441-7.574-7.539-5.865-0.124-11.736-0.123-17.601 0-4.585 0.096-7.437 2.862-7.562 7.429-0.158 5.827-0.158 11.665 0 17.492 0.124 4.566 2.976 7.268 7.562 7.438 2.911 0.108 5.83 0.021 8.745 0.021z">
            </path>
            <path fill="#fff" style="fill: var(--color2, #fff)"
                d="M11.886 24.238c0.133-0.941 0.235-1.888 0.404-2.823 0.96-5.293 4.708-8.895 10.066-9.080 6.452-0.222 12.923-0.233 19.373-0.001 5.832 0.21 10.056 4.528 10.238 10.362 0.194 6.195 0.194 12.405 0 18.6-0.182 5.834-4.404 10.152-10.237 10.362-6.451 0.233-12.923 0.239-19.373-0.003-5.833-0.219-9.865-4.547-10.255-10.39-0.034-0.505-0.142-1.006-0.216-1.509 0-5.173 0-10.346 0-15.518zM32.005 48.201c2.952 0 5.907 0.088 8.855-0.021 4.623-0.171 7.466-2.93 7.574-7.548 0.134-5.754 0.134-11.517 0-17.271-0.108-4.617-2.953-7.441-7.574-7.539-5.865-0.124-11.736-0.123-17.601 0-4.585 0.096-7.437 2.862-7.562 7.429-0.158 5.827-0.158 11.665 0 17.492 0.124 4.566 2.976 7.268 7.562 7.438 2.911 0.108 5.83 0.021 8.745 0.021z">
            </path>
            <path fill="#fff" style="fill: var(--color2, #fff)"
                d="M32 21.749c-5.661 0-10.251 4.589-10.251 10.25s4.59 10.251 10.251 10.251c5.662 0 10.251-4.589 10.251-10.251s-4.589-10.25-10.251-10.25zM32 38.721c-3.712 0-6.722-3.009-6.722-6.722s3.009-6.722 6.722-6.722 6.722 3.009 6.722 6.722c0 3.712-3.009 6.722-6.722 6.722z">
            </path>
            <path fill="#fff" style="fill: var(--color2, #fff)"
                d="M45.288 21.282c0 1.347-1.092 2.439-2.439 2.439s-2.439-1.092-2.439-2.439c0-1.347 1.092-2.439 2.439-2.439s2.439 1.092 2.439 2.439z">
            </path>
            <radialGradient id="paint0_radial" cx="0" cy="0" r="1" gradientUnits="userSpaceOnUse"
                gradientTransform="translate(8.19977 34.9568) scale(44.113)">
                <stop stop-color="#FAE100" />
                <stop offset="0.0544" stop-color="#FADC04" />
                <stop offset="0.1167" stop-color="#FBCE0E" />
                <stop offset="0.1829" stop-color="#FCB720" />
                <stop offset="0.2514" stop-color="#FE9838" />
                <stop offset="0.3054" stop-color="#FF7950" />
                <stop offset="0.4922" stop-color="#FF1C74" />
                <stop offset="1" stop-color="#6C1CD1" />
            </radialGradient>
            <linearGradient id="paint1_linear" x1="15.3416" y1="17.3794" x2="-52.4231" y2="-20.7382"
                gradientUnits="userSpaceOnUse">
                <stop stop-color="#A1B5D8" stop-opacity="0" />
                <stop offset="0.3094" stop-color="#90A2BD" stop-opacity="0.309804" />
                <stop offset="0.7554" stop-color="#7C8B9C" stop-opacity="0.756863" />
                <stop offset="1" stop-color="#748290" />
            </linearGradient>
            <linearGradient id="paint2_linear" x1="20" y1="35.31" x2="20" y2="41.545" gradientUnits="userSpaceOnUse">
                <stop stop-color="#FAE100" stop-opacity="0" />
                <stop offset="0.3068" stop-color="#FCA800" stop-opacity="0.305882" />
                <stop offset="0.6275" stop-color="#FE7300" stop-opacity="0.627451" />
                <stop offset="0.8685" stop-color="#FF5200" stop-opacity="0.866667" />
                <stop offset="1" stop-color="#FF4500" />
            </linearGradient>
            <linearGradient id="paint3_linear" x1="17.7244" y1="17.6679" x2="7.82505" y2="7.76858"
                gradientUnits="userSpaceOnUse">
                <stop stop-color="#833AB4" stop-opacity="0" />
                <stop offset="1" stop-color="#833AB4" />
            </linearGradient>
            <linearGradient id="paint4_linear" x1="27.414" y1="36.5852" x2="22.4731" y2="13.2922"
                gradientUnits="userSpaceOnUse">
                <stop stop-color="#833AB4" stop-opacity="0" />
                <stop offset="1" stop-color="#833AB4" />
            </linearGradient>
            <linearGradient id="paint5_linear" x1="29.2941" y1="29.2943" x2="9.44852" y2="9.44863"
                gradientUnits="userSpaceOnUse">
                <stop stop-color="#833AB4" stop-opacity="0" />
                <stop offset="1" stop-color="#833AB4" />
            </linearGradient>
            <linearGradient id="paint6_linear" x1="30.7661" y1="17.2863" x2="24.2036" y2="10.7237"
                gradientUnits="userSpaceOnUse">
                <stop stop-color="#833AB4" stop-opacity="0" />
                <stop offset="1" stop-color="#833AB4" />
            </linearGradient>
            <linearGradient id="paint7_linear" x1="27.9421" y1="12.1134" x2="11.7611" y2="28.2943"
                gradientUnits="userSpaceOnUse">
                <stop stop-color="#833AB4" />
                <stop offset="0.0922" stop-color="#9C3495" />
                <stop offset="0.2927" stop-color="#DC2546" />
                <stop offset="0.392" stop-color="#FD1D1D" />
                <stop offset="0.5589" stop-color="#FC6831" />
                <stop offset="0.6887" stop-color="#FC9B40" />
                <stop offset="0.7521" stop-color="#FCAF45" />
                <stop offset="0.7806" stop-color="#FDB750" />
                <stop offset="0.8656" stop-color="#FECB6A" />
                <stop offset="0.9415" stop-color="#FFD87A" />
                <stop offset="1" stop-color="#FFDC80" />
            </linearGradient>
            <clipPath id="clip0">
                <rect width="40" height="40" fill="white" />
            </clipPath>
        </symbol>
        <symbol id="arrow_left" viewBox="0 0 108 64">
            <path fill="#ff6b09" style="fill: var(--color3, #ff6b09)"
                d="M104 28c2.209 0 4 1.791 4 4s-1.791 4-4 4v-8zM1.172 34.828c-1.562-1.562-1.562-4.095 0-5.657l25.456-25.456c1.562-1.562 4.095-1.562 5.657 0s1.562 4.095 0 5.657l-22.627 22.627 22.627 22.628c1.562 1.562 1.562 4.094 0 5.657s-4.095 1.562-5.657 0l-25.456-25.456zM104 36h-100v-8h100v8z">
            </path>
        </symbol>
        <symbol id="arrow_right" viewBox="0 0 108 64">
            <path fill="#ff6b09" style="fill: var(--color3, #ff6b09)"
                d="M4 28c-2.209 0-4 1.791-4 4s1.791 4 4 4v-8zM106.828 34.828c1.562-1.562 1.562-4.095 0-5.657l-25.456-25.456c-1.562-1.562-4.094-1.562-5.657 0s-1.562 4.095 0 5.657l22.628 22.627-22.628 22.628c-1.562 1.562-1.562 4.094 0 5.657s4.095 1.562 5.657 0l25.456-25.456zM4 36h100v-8h-100v8z">
            </path>
        </symbol>
        <symbol id="campfire" viewBox="0 0 47 64">
            <path fill="#ff6b09" style="fill: var(--color3, #ff6b09)"
                d="M43.817 33.186c-0.567-1.27-1.349-2.521-2.493-3.966-2.885-3.627-3.764-11.714-3.774-11.791-0.039-0.388-0.313-0.708-0.675-0.824-0.372-0.116-0.773-0.010-1.037 0.281-3.442 3.85-1.995 9.794-1.212 12.17 0.215 0.65 0.45 1.416 0.616 2.192 1.271 6.274-1.183 9.115-1.76 9.687-0.557 0.155-0.939 0.078-1.291-0.301-1.212-1.328-1.613-5.682-1.046-11.355 0.117-1.154 0.088-2.192-0.078-3.161-1.196-6.972-5.581-11.445-6.698-13.013-3.070-4.538-3.383-12.092-3.393-12.16-0.010-0.359-0.215-0.679-0.538-0.834-0.313-0.155-0.694-0.136-0.988 0.068-5.124 3.481-4.684 11.869-3.97 16.553 0.166 1.086 0.489 2.192 1.046 3.588 1.985 4.994-0.391 11.442-0.411 11.501s-0.039 0.107-0.049 0.165c-0.303 1.59-0.812 2.541-1.379 2.541-0.059 0-0.117-0.010-0.186-0.029-0.694-0.145-1.056-0.882-1.066-1.522-0.039-8.272-8.34-11.055-8.428-11.084-0.372-0.116-0.782-0.010-1.036 0.291-0.264 0.301-0.313 0.718-0.137 1.067 0.098 0.204 0.411 1.096 0.196 4.247-0.186 2.832-0.704 5.634-1.535 8.32-1.975 6.439-1.662 12.538-1.643 12.829 1.519 16.515 25.27 19.408 39.365 10.104 1.545-1.018 2.806-2.182 3.735-3.462 5.202-7.176 2.141-16.921-0.137-22.099zM7.688 48.963c0.029 0.533-0.381 0.989-0.919 1.018h-0.059c-0.518 0-0.948-0.397-0.978-0.911-0.088-1.416-0.068-2.899 0.039-4.509 0.039-0.533 0.508-0.931 1.046-0.902 0.538 0.039 0.948 0.504 0.909 1.037-0.108 1.532-0.127 2.929-0.039 4.267zM8.167 40.371c-0.059 0.495-0.479 0.853-0.968 0.853-0.039 0-0.078 0-0.127-0.010-0.528-0.068-0.909-0.543-0.851-1.077l0.469-3.743c0.068-0.524 0.548-0.902 1.095-0.844 0.538 0.068 0.919 0.553 0.851 1.086l-0.469 3.733z">
            </path>
            <path fill="#ff6b09" style="fill: var(--color3, #ff6b09)"
                d="M37.202 13.266c-0.533-0.082-0.899-0.576-0.817-1.105 0.061-0.394 0.414-2.411 1.373-3.425 0.369-0.391 0.987-0.411 1.382-0.044 0.394 0.366 0.414 0.98 0.044 1.371-0.406 0.429-0.751 1.659-0.867 2.394-0.082 0.523-0.575 0.89-1.116 0.809z">
            </path>
            <path fill="#ff6b09" style="fill: var(--color3, #ff6b09)"
                d="M1.556 18.097c-0.187-0.721-0.652-1.91-1.099-2.299-0.406-0.353-0.447-0.966-0.091-1.368 0.355-0.403 0.973-0.445 1.38-0.090 1.054 0.916 1.604 2.889 1.704 3.275 0.134 0.518-0.181 1.046-0.704 1.179-0.534 0.133-1.058-0.188-1.191-0.697z">
            </path>
        </symbol>
        <symbol id="check" viewBox="0 0 80 64">
            <path fill="#ff6b09" style="fill: var(--color3, #ff6b09)"
                d="M68.914 3.027c-2.969 1.328-5.814 2.95-8.53 4.758-5.462 3.594-10.455 7.873-15.139 12.436-4.682 4.575-9.041 9.47-13.162 14.561-1.031 1.273-5.646 6.941-5.646 6.941l-19.193-28.76-7.245 20.083 25.954 30.954c2.52-5.102 4.946-10.139 7.325-14.516 0.591-1.113 1.21-2.16 1.802-3.224 0 0 3.046-5.354 3.847-6.703 3.203-5.395 6.665-10.649 10.477-15.641 3.817-4.983 7.966-9.74 12.67-13.921 2.34-2.105 4.832-4.051 7.501-5.744 2.664-1.697 5.494-3.183 8.522-4.25-3.149 0.62-6.222 1.696-9.184 3.027z">
            </path>
        </symbol>
        <symbol id="female-student" viewBox="0 0 53 64">
            <path fill="#ff6b09" style="fill: var(--color3, #ff6b09)"
                d="M-0.205 63.517c6.882 0 46.696 0 53.569 0 0.265-6.109-0.172-16.245-3.928-21.069l-0.136-0.173-8.208-4.121c0.178-0.601 0.266-1.152 0.301-1.557 0.041-0.486-0.026-0.942-0.2-1.356-1.354-3.24-4.219-4.945-5.795-5.672 0.48-0.968 0.79-2.006 0.939-3.068 0.892-0.251 1.61-0.958 1.845-1.902l0.958-3.892c0.17-0.687 0.063-1.399-0.302-2.004-0.157-0.261-0.36-0.481-0.588-0.669 2.701-6.136-1.823-11.921-2.069-12.225-4.899-5.297-11.089-4.307-11.416-4.248-8.932 1.87-12.379 8.716-10.433 16.744-0.577 0.639-0.819 1.528-0.605 2.401l0.963 3.896c0.233 0.936 0.945 1.641 1.831 1.895 0.273 1.944 1.096 3.702 2.305 5.119v3.085c-12.818 6.564-4.696 2.376-14.968 7.573-0.020 0.097-4.82 5.198-4.106 20.317l0.043 0.924zM51.503 61.578h-8.817v-3.704l5.831-13.349c2.921 4.849 3.030 14.106 2.985 17.053zM39.47 36.433c-0.34 3.908-2.484 2.727-3.807 5.738-1.041-1.144-1.354-2.517-1.074-3.985 0.505-2.697-1.141-3.498-0.734-6.332l0.062-0.065v-0.009c0.035-0.039 0.36-0.426 0.454-0.548 3.488 1.521 5.167 4.349 5.099 5.201zM20.757 33.361c1.619 1.123 3.574 1.787 5.676 1.787 1.98 0 3.861-0.576 5.473-1.637 0.223 2.228 1.094 2.674 0.785 4.313-0.058 0.304-0.089 0.604-0.108 0.899l-6.004 6.767-7.675-8.653 1.853-0.967v-2.509zM18.343 25.079v-3.752c0-1.382 0-6.863 0-6.592 0.935-1.728 2.208-2.982 3.792-3.733 4.24 2.399 9.121 5.979 12.394 9.583-0.003 4.589 0.013 4.601-0.018 4.978l-0.002 0.024c-0.255 4.167-3.682 7.621-8.076 7.621-4.271 0-7.818-3.354-8.074-7.662-0.013-0.154-0.016-0.309-0.016-0.467zM17.148 37.773l9.432 10.633 6.332-7.137c0.145 0.417 0.348 0.81 0.58 1.191l-6.912 8.644-10.308-12.891 0.876-0.439zM36.46 23.518v-2.996c0.085-0.097 0.805-0.923 0.72-0.825 0.040 1.517 0.203-0.273-0.72 3.821zM25.123 3.468c0.383 0.024 5.53-0.783 9.598 3.609 0.16 0.201 3.472 4.468 2.141 9.135-0.455-2.077-1.249-4.738-2.503-6.008l-1.371 1.366c1.239 1.254 2.052 5.074 2.362 7.055-5.681-5.944-13.009-9.707-13.109-9.77-0.367 0.229-3.469 0.818-5.721 5.195l-0.107 0.209v3.215c-0.097 0.001-0.381 0.004-0.284 0.003-1.431-6.909 1.309-12.397 8.995-14.008zM15.925 19.471l0.487 1.974v2.075l-0.81-3.278c-0.119-0.489 0.243-0.674 0.323-0.771zM14.505 39.099l12.075 15.102 8.17-10.218c0.889 0.795 1.316 0.908 3.2 1.877l-0.635-2.156c-0.161-0.547 0.477-1.425 0.863-1.829 0.861-0.467 1.578-1.133 2.115-1.955l6.666 3.347-6.203 14.2v4.11h-28.351v-4.11l-6.205-14.198 8.307-4.17zM4.641 44.53l5.832 13.345v3.703h-8.816c-0.044-2.946 0.065-12.198 2.984-17.048z">
            </path>
        </symbol>
        <symbol id="Group" viewBox="0 0 65 64">
            <path fill="#ff6b09" style="fill: var(--color3, #ff6b09)"
                d="M3.986 25.116v5.663c0 0.304 0.14 0.591 0.379 0.78 3.87 3.046 8.726 4.724 13.674 4.724 1.481 0 2.963-0.155 4.412-0.447 3.089 1.365 6.377 2.064 9.78 2.064 3.414 0 6.703-0.699 9.781-2.064 6.182 1.248 12.769-0.092 18.085-4.277 0.239-0.189 0.379-0.476 0.379-0.78v-5.663c0-0.831-0.413-1.588-1.15-2.054l-7.734-4.351c1.692-2.147 2.952-5.204 3.172-7.826 0.642-4.513-3.036-9.293-8.331-9.293-2.226 0-4.343 0.916-5.896 2.454-0.054 0.053-0.115 0.098-0.167 0.153-0.048 0.050-0.087 0.108-0.133 0.16-0.031 0.034-0.058 0.072-0.089 0.106-1.513-2.759-4.422-4.464-7.849-4.464-0.333 0-0.66 0.023-0.984 0.056-0.020-0.001-0.036-0.011-0.056-0.011-0.184 0-0.573 0.048-0.781 0.108-0.031 0.009-0.053 0.031-0.082 0.042-2.559 0.517-4.727 2.068-6.026 4.312-1.563-1.822-3.859-2.914-6.358-2.914-7.816 0-11.284 9.224-5.114 17.162l-7.806 4.333c-0.693 0.439-1.106 1.197-1.106 2.028zM41.993 33.656c-0.168 0.082-0.334 0.169-0.503 0.246l-0 0c-0.001 0.001-0.002 0.001-0.004 0.002-2.905 1.335-6.018 2.012-9.255 2.012-3.227 0-6.341-0.677-9.259-2.013-1.42-0.646-2.793-1.467-4.090-2.442v-5.74c0-0.196 0.095-0.369 0.204-0.442l9.084-5.049c1.13 0.959 2.574 1.663 4.070 1.663 1.441 0 2.997-0.714 4.105-1.687l8.974 5.039c0.166 0.107 0.261 0.279 0.261 0.475v5.739c-1.143 0.858-2.346 1.59-3.587 2.196zM58.308 24.763c0.117 0.074 0.184 0.202 0.184 0.353v5.175c-3.937 2.955-8.674 4.296-13.474 3.959 0.738-0.461 1.542-1.033 2.166-1.521 0.239-0.188 0.38-0.475 0.38-0.781v-6.228c0-0.87-0.437-1.671-1.22-2.173l-4.767-2.679 1.159-0.642c1.406 1.147 2.613 1.488 3.697 1.488 1.325 0 2.72-0.65 3.756-1.518l8.12 4.567zM46.432 3.576c2.761 0 5.186 1.804 6.043 4.285-1.666-0.198-3.295-1.020-4.473-2.284-0.213-0.229-0.516-0.347-0.831-0.31-0.31 0.033-0.586 0.21-0.746 0.478-1.131 1.895-2.986 3.16-5.095 3.519 0-0.002-0-0.004-0-0.006 0.009-0.431-0.016-0.869-0.065-1.306-0.005-0.045-0.009-0.089-0.015-0.133-0.064-0.497-0.213-1.117-0.243-1.217 1.126-1.804 3.218-3.026 5.426-3.026zM41.112 11.287c2.506-0.274 4.772-1.534 6.329-3.524 1.534 1.258 3.481 2.021 5.404 2.113-0.015 3.584-2.942 9.854-6.412 9.854-2.674 0-4.958-3.825-5.811-6.476 0.217-0.682 0.375-1.338 0.491-1.967zM41.314 18.746l-1.772 0.981-1.789-1.005c0.663-0.826 1.272-1.786 1.793-2.827 0.501 1.053 1.101 2.020 1.768 2.851zM38.64 12.929c-0.956 2.853-3.41 6.98-6.399 6.98-3.485 0-6.452-5.728-7.017-9.392 0.151-0.037 4.859 0.253 8.099-4.002 1.645 1.376 3.863 2.286 6.021 2.377 0.025 1.293-0.288 2.812-0.704 4.037zM32.299 1.984c5.559 0 6.618 4.785 6.705 4.884-2.016-0.205-3.855-1.192-5.126-2.551-0.213-0.229-0.523-0.343-0.832-0.309-0.311 0.034-0.587 0.212-0.747 0.481-1.101 1.863-2.828 3.177-4.828 3.736-0.772 0.216-1.606 0.314-2.333 0.307 0.272-3.644 3.192-6.548 7.161-6.548zM24.922 15.876c0.514 1.029 1.126 2.013 1.825 2.877l-1.751 0.973-1.814-1.019c0.688-0.877 1.272-1.858 1.739-2.83zM18.012 3.577c2.249 0 4.31 1.141 5.458 3.028-0.058 0.2-0.213 0.996-0.233 1.095-1.38-0.33-2.648-1.065-3.641-2.125-0.214-0.228-0.516-0.341-0.832-0.308-0.31 0.034-0.586 0.212-0.745 0.48-1.327 2.239-3.761 3.629-6.354 3.63 0.316-3.254 3.036-5.8 6.347-5.8zM11.752 11.355c2.85-0.028 5.541-1.371 7.285-3.592 1.192 0.981 2.607 1.627 4.111 1.922 0.058 1.15 0.358 2.547 0.701 3.577-0.548 1.679-1.598 3.681-2.901 5.011-0.008 0.008-0.019 0.012-0.027 0.021-0.815 0.859-1.976 1.437-2.888 1.437-3.188 0-5.681-5.016-6.28-8.376zM5.97 25.116c0-0.15 0.067-0.278 0.135-0.324l8.232-4.568c0.494 0.411 0.607 0.458 0.707 0.531l-0 0.001c0.969 0.644 1.857 0.965 3.068 0.965 1.29 0 2.465-0.547 3.498-1.388 0.058-0.046 0.121-0.090 0.176-0.136l1.175 0.661-4.893 2.721c-0.731 0.472-1.168 1.273-1.168 2.142v6.228c0 0.304 0.14 0.592 0.38 0.78 0.633 0.498 1.455 1.078 2.166 1.523-4.869 0.332-9.606-1.057-13.475-3.96v-5.175z">
            </path>
            <path fill="#ff6b09" style="fill: var(--color3, #ff6b09)"
                d="M62.517 41.562c-1.22-0.767-2.722-0.846-4.014-0.22l-12.239 5.913c-0.043-2.291-1.912-4.143-4.214-4.143l-7.018 0.002c-3.46-3.008-7.883-4.85-11.904-4.947-3.965-0.094-7.525-0.12-9.185-0.128v-2.004h-13.943v23.034h13.943v-2.758c3.824 2.194 13.878 7.69 18.649 7.69 0.108 0 0.214-0.003 0.316-0.009 8.391-0.471 28.181-14.397 29.487-15.321 1.277-0.741 2.068-2.112 2.068-3.591 0-1.438-0.727-2.753-1.946-3.517zM11.96 57.085h-9.976v-19.067h9.976v19.067zM61.374 46.969c-0.030 0.017-0.060 0.035-0.088 0.055-0.204 0.145-20.561 14.542-28.488 14.987-0.078 0.004-0.158 0.006-0.241 0.006-4.185 0-14.388-5.505-18.613-8.002v-13.993c1.654 0.007 5.193 0.034 9.138 0.128 3.673 0.088 7.752 1.842 10.911 4.691l0.283 0.256 7.775-0.002c1.234 0 2.238 1.003 2.238 2.237s-1.003 2.238-2.237 2.238h-14.284v1.983h14.284c1.369 0 2.575-0.665 3.347-1.679l13.968-6.747c0.686-0.334 1.451-0.292 2.098 0.114 0.646 0.405 1.016 1.074 1.016 1.836 0 0.783-0.423 1.506-1.105 1.89z">
            </path>
            <path fill="#ff6b09" style="fill: var(--color3, #ff6b09)" d="M33.223 24.317h-1.983v1.839h1.983v-1.839z">
            </path>
            <path fill="#ff6b09" style="fill: var(--color3, #ff6b09)" d="M33.223 27.985h-1.983v1.839h1.983v-1.839z">
            </path>
            <path fill="#ff6b09" style="fill: var(--color3, #ff6b09)" d="M33.223 31.652h-1.983v1.839h1.983v-1.839z">
            </path>
        </symbol>
        <symbol id="insurance" viewBox="0 0 56 64">
            <path fill="#ff6b09" style="fill: var(--color3, #ff6b09)"
                d="M1.084 27.484c0 0.714-1.084 0.714-1.084 0 0-15.176 12.308-27.484 27.484-27.484 15.183 0 27.484 12.308 27.484 27.484 0 0.714-1.077 0.714-1.077 0 0-10.258-16.856-10.264-16.856 0 0 0.714-1.11 0.714-1.11 0 0-10.232-16.882-10.232-16.882 0 0 0.714-1.109 0.714-1.109 0 0-10.212-16.85-10.284-16.85 0zM18.031 23.5c0.292-5.904 1.22-11.199 2.569-15.241 1.077-3.212 2.44-5.651 3.984-7.020-11.588 1.265-20.97 10.050-23.066 21.444 3.99-5.755 13.204-5.294 16.513 0.817zM35.841 23.234c-0.299-5.677-1.2-10.758-2.498-14.631-3.348-10.024-8.37-10.024-11.718 0-1.298 3.873-2.193 8.954-2.498 14.631 3.601-6.118 13.113-6.118 16.714 0zM53.45 22.683c-2.089-11.393-11.471-20.178-23.066-21.444 1.551 1.369 2.907 3.809 3.984 7.020 1.349 4.042 2.277 9.337 2.569 15.241 3.328-6.144 12.568-6.508 16.513-0.817z">
            </path>
            <path fill="#ff6b09" style="fill: var(--color3, #ff6b09)"
                d="M23.877 40.060v-5.581c-1.006 0.668-1.797 1.7-1.797 2.959 0 1.227 0.805 2.038 1.797 2.622zM24.96 41.793c-1.927-0.883-3.958-1.914-3.958-4.355 0-2.518 1.914-3.777 3.958-4.718v9.072z">
            </path>
            <path fill="#ff6b09" style="fill: var(--color3, #ff6b09)"
                d="M31.092 48.48v5.645c1.019-0.675 1.817-1.713 1.817-2.972 0-1.239-0.817-2.076-1.817-2.673zM30.015 46.741c1.933 0.895 3.977 1.959 3.977 4.412 0 2.524-1.927 3.783-3.977 4.717v-9.129z">
            </path>
            <path fill="#ff6b09" style="fill: var(--color3, #ff6b09)"
                d="M31.092 28.126c4.438 1.025 8.999 4.347 8.999 9.311 0 4.25-7.183 4.094-7.183 0 0-1.265-0.798-2.303-1.817-2.972v7.942c4.107 1.343 9.012 3.75 9.012 8.746 0 4.97-4.561 8.286-9.012 9.304-0.019 4.73-7.202 4.724-7.215-0.006-2.53-0.584-4.73-1.765-6.32-3.329-1.667-1.648-2.654-3.718-2.654-5.969 0-4.185 7.176-4.185 7.176 0 0 1.252 0.792 2.284 1.797 2.952v-7.935c-4.075-1.317-9.006-3.796-9.006-8.746 0-4.97 4.561-8.286 9.006-9.304 0.019-4.73 7.202-4.724 7.215 0.006zM24.96 28.139v0.863c-4.224 0.837-9.012 3.543-9.012 8.422 0 4.691 5.255 6.793 9.012 7.955v10.485c-2.031-0.928-3.958-2.18-3.958-4.711 0-2.764-5.022-2.764-5.022 0 0 1.953 0.869 3.757 2.336 5.197 1.862 1.843 4.12 2.719 6.644 3.218v0.869c0 3.329 5.054 3.329 5.054 0v-0.863c4.237-0.843 9.006-3.549 9.006-8.422 0-4.737-5.242-6.774-9.006-7.961v-10.479c2.037 0.928 3.977 2.18 3.977 4.724 0 2.693 5.015 2.803 5.015 0 0-4.873-4.762-7.585-8.993-8.428v-0.869c0-3.329-5.054-3.329-5.054 0z">
            </path>
        </symbol>
        <symbol id="mobile-learning" viewBox="0 0 65 64">
            <path fill="#ff6b09" style="fill: var(--color3, #ff6b09)"
                d="M60.35-0.256h-31.492c-2.050 0-3.718 1.668-3.718 3.718v13.036l-23.396 9.82c-0.265 0.111-0.445 0.361-0.465 0.648s0.121 0.561 0.368 0.708l2.984 1.786v19.030c-1.526 0.348-2.671 1.713-2.671 3.347v1.834c0 0.421 0.341 0.762 0.762 0.762h5.343c0.421 0 0.762-0.341 0.762-0.762v-1.834c0-1.632-1.145-2.995-2.672-3.346v-18.119l2.359 1.412c-0.072 0.544-0.009-0.948-0.034 8.86 0 3.224 8.258 4.951 16.66 5.050v14.851c0 0.767 0.235 1.481 0.636 2.073 0.668 0.988 1.799 1.64 3.079 1.64h31.492c2.048 0 3.714-1.667 3.714-3.714 0 0.102-0.004-3.146 0-57.079 0-2.022-1.672-3.718-3.712-3.718zM7.303 51.836v1.072h-3.819v-1.072c0-1.056 0.855-1.915 1.905-1.915 1.056 0 1.914 0.859 1.914 1.915zM60.35 62.728h-31.492c-0.756 0-1.423-0.383-1.818-0.963-0.236-0.35-0.375-0.771-0.375-1.223v-5.148h35.869v5.15c0 1.193-0.994 2.185-2.185 2.185zM62.535 53.87h-35.871v-8.173c4.102-0.047 16.67-0.95 16.67-5.054-0.005-6.161 0.011-8.66-0.019-8.871l6.842-4.098c0.246-0.148 0.388-0.422 0.368-0.708s-0.2-0.537-0.465-0.648l-23.395-9.82v-6.364h35.871v43.736zM25.902 35.584c-4.226 0-12.363 0.546-15.898 2.854 0.022-7.060-0.245-6.601 0.624-7.199 2.196-1.617 8.477-2.746 15.274-2.746 2.965 0 15.908 0.815 15.908 3.556v6.391c-3.568-2.33-11.664-2.855-15.908-2.855zM26.666 3.462c0-1.208 0.983-2.191 2.191-2.191h31.492c1.209 0 2.187 0.996 2.187 2.19v5.148h-35.869v-5.148zM25.902 17.83l22.18 9.31-5.496 3.289c-2.922-2.898-12.587-3.46-16.684-3.46-4.102 0-13.768 0.564-16.684 3.46l-5.497-3.29 22.181-9.31zM10.004 40.643c0-1.233 5.46-3.535 15.898-3.535 10.444 0 15.908 2.302 15.908 3.535 0 1.234-5.464 3.536-15.908 3.536-10.438 0-15.898-2.302-15.898-3.536z">
            </path>
            <path fill="#ff6b09" style="fill: var(--color3, #ff6b09)"
                d="M44.602 56.543c-1.389 0-2.52 1.13-2.52 2.52s1.13 2.521 2.52 2.521c1.39 0 2.52-1.131 2.52-2.521s-1.13-2.52-2.52-2.52zM44.602 60.059c-0.549 0-0.996-0.447-0.996-0.997s0.447-0.996 0.996-0.996c0.55 0 0.996 0.447 0.996 0.996s-0.447 0.997-0.996 0.997z">
            </path>
            <path fill="#ff6b09" style="fill: var(--color3, #ff6b09)" d="M47.509 4.179h-5.813v1.524h5.813v-1.524z">
            </path>
        </symbol>
        <symbol id="audio-book" viewBox="0 0 77 64">
            <path fill="#ff6b09" style="fill: var(--color3, #ff6b09)"
                d="M6.095 58.905h24.46c1.24 2.571 3.833 4.231 6.76 4.231h1.545c2.93 0 5.522-1.66 6.762-4.231h24.473c2.521 0 4.571-2.051 4.571-4.571v-43.81c0-2.521-2.051-4.571-4.571-4.571h-2.469v-2.042c0-1.681-1.367-3.048-3.048-3.048h-52.982c-1.68 0-3.048 1.367-3.048 3.048v2.042h-2.454c-2.521 0-4.571 2.051-4.571 4.571v43.81c0 2.521 2.051 4.571 4.571 4.571zM64.576 49.503h-24.957v-35.41c5.768 0.755 10.241 5.69 10.241 11.661v1.374l-0.362-0.080c-0.393-0.084-0.805-0.013-1.147 0.204-0.341 0.218-0.582 0.562-0.668 0.957l-2.426 11.039c-0.18 0.821 0.339 1.632 1.161 1.813l5.243 1.156c0.271 0.057 0.546 0.087 0.821 0.087 1.844 0 3.414-1.261 3.815-3.070l1.403-6.384c0.463-2.096-0.866-4.181-2.969-4.648l-1.824-0.402v-2.046c0-7.655-5.834-13.972-13.289-14.741v-7.103h24.96l-0.003 45.592zM50.332 30.353l3.743 0.824c0.467 0.104 0.753 0.549 0.65 1.016l-1.403 6.382c-0.101 0.461-0.612 0.748-1.015 0.662l-3.747-0.826 1.772-8.059zM11.597 3.911h24.975v7.1c-7.462 0.762-13.303 7.083-13.303 14.743v2.045l-1.827 0.404c-1.018 0.226-1.887 0.833-2.445 1.707-0.561 0.877-0.745 1.922-0.519 2.937l1.4 6.377c0.379 1.785 1.985 3.080 3.819 3.080 0.275 0 0.551-0.030 0.832-0.089l5.22-1.153c0.82-0.181 1.339-0.993 1.159-1.813l-2.426-11.039c-0.086-0.395-0.327-0.74-0.668-0.957-0.342-0.217-0.756-0.289-1.149-0.204l-0.348 0.077v-1.371c0-5.976 4.48-10.915 10.256-11.663v35.413h-24.975v-45.592zM25.832 30.355l1.774 8.059-3.726 0.823c-0.458 0.103-0.926-0.199-1.024-0.656l-1.403-6.391c-0.051-0.222-0.010-0.449 0.11-0.638 0.122-0.191 0.314-0.324 0.536-0.374l3.734-0.824zM4.571 10.524c0-0.84 0.683-1.524 1.524-1.524h2.454v40.503c0 1.681 1.368 3.048 3.048 3.048h52.982c1.68 0 3.048-1.367 3.048-3.048v-40.503h2.469c0.841 0 1.524 0.684 1.524 1.524v43.81c0 0.84-0.683 1.524-1.524 1.524h-25.509c-0.67 0-1.26 0.437-1.457 1.077-0.579 1.887-2.295 3.155-4.269 3.155h-1.545c-1.967 0-3.682-1.263-4.275-3.173-0.202-0.631-0.789-1.059-1.451-1.059h-25.494c-0.841 0-1.524-0.684-1.524-1.524v-43.81z">
            </path>
        </symbol>
        <symbol id="open-book" viewBox="0 0 92 64">
            <path fill="#ff6b09" style="fill: var(--color3, #ff6b09)" d="M40.533 9.216h-27.279v2.043h27.279v-2.043z">
            </path>
            <path fill="#ff6b09" style="fill: var(--color3, #ff6b09)" d="M40.533 16.831h-23.194v2.043h23.194v-2.043z">
            </path>
            <path fill="#ff6b09" style="fill: var(--color3, #ff6b09)" d="M40.533 24.448h-27.279v2.043h27.279v-2.043z">
            </path>
            <path fill="#ff6b09" style="fill: var(--color3, #ff6b09)" d="M40.533 32.063h-23.194v2.043h23.194v-2.043z">
            </path>
            <path fill="#ff6b09" style="fill: var(--color3, #ff6b09)" d="M40.533 39.679h-27.279v2.043h27.279v-2.043z">
            </path>
            <path fill="#ff6b09" style="fill: var(--color3, #ff6b09)" d="M40.533 47.295h-23.194v2.043h23.194v-2.043z">
            </path>
            <path fill="#ff6b09" style="fill: var(--color3, #ff6b09)" d="M77.98 9.216h-27.279v2.043h27.279v-2.043z">
            </path>
            <path fill="#ff6b09" style="fill: var(--color3, #ff6b09)" d="M73.895 16.831h-23.194v2.043h23.194v-2.043z">
            </path>
            <path fill="#ff6b09" style="fill: var(--color3, #ff6b09)" d="M77.98 24.448h-27.279v2.043h27.279v-2.043z">
            </path>
            <path fill="#ff6b09" style="fill: var(--color3, #ff6b09)" d="M73.895 32.063h-23.194v2.043h23.194v-2.043z">
            </path>
            <path fill="#ff6b09" style="fill: var(--color3, #ff6b09)" d="M77.98 39.679h-27.279v2.043h27.279v-2.043z">
            </path>
            <path fill="#ff6b09" style="fill: var(--color3, #ff6b09)" d="M73.895 47.295h-23.194v2.043h23.194v-2.043z">
            </path>
            <path fill="#ff6b09" style="fill: var(--color3, #ff6b09)"
                d="M87.83 6.891h-3.745v-5.624c0-0.564-0.457-1.021-1.021-1.021h-30.529c-2.979 0-5.561 1.611-6.917 4.022-1.355-2.411-3.939-4.022-6.919-4.022h-30.529c-0.564 0-1.021 0.457-1.021 1.021v5.624h-3.745c-0.564 0-1.021 0.457-1.021 1.021v54.822c0 0.564 0.457 1.021 1.021 1.021 10.254 0 74.135 0 84.425 0 0.564 0 1.021-0.457 1.021-1.021v-54.822c0-0.564-0.457-1.021-1.021-1.021zM52.535 2.288h29.508c0 9.146 0 33.237 0 54.7h-31.687c-1.405 0-2.809 0.592-3.717 1.36v-50.178c0-3.26 2.61-5.883 5.896-5.883zM9.191 2.288h29.508c3.193 0 5.778 2.485 5.884 5.658 0.001 0.044 0.005 0.182 0.013 0.225v50.174c-0.906-0.765-2.295-1.356-3.704-1.356h-31.7c0-21.456 0-45.557 0-54.7zM4.426 8.933h2.723v49.076c0 0.564 0.457 1.021 1.021 1.021h32.721c1.557 0 3.061 1.021 3.543 2.682h-40.009v-52.779zM86.809 61.712h-40.008c0.485-1.669 1.974-2.682 3.556-2.682h32.708c0.564 0 1.021-0.457 1.021-1.021v-49.076h2.723v52.779z">
            </path>
        </symbol>
        <symbol id="study-program" viewBox="0 0 61 64">
            <path fill="#ff6b09" style="fill: var(--color3, #ff6b09)"
                d="M60.301 9.921c0-0.001-0.001-0.003-0.001-0.005-0.013-0.031-0.029-0.062-0.048-0.090-0.002-0.002-0.003-0.004-0.005-0.006-0.019-0.029-0.042-0.058-0.067-0.084l-9.612-9.611c-0.025-0.025-0.052-0.046-0.081-0.065-0.006-0.004-0.013-0.008-0.018-0.012-0.024-0.015-0.047-0.028-0.072-0.039-0.008-0.003-0.015-0.007-0.022-0.009-0.063-0.025-0.13-0.038-0.198-0.040-0.004 0-0.008-0.001-0.010-0.001h-42.343c-0.314 0-0.568 0.255-0.568 0.568v58.621c0 0.037 0.003 0.074 0.011 0.111 0.003 0.016 0.009 0.031 0.014 0.046 0.006 0.020 0.011 0.040 0.019 0.060 0.008 0.017 0.017 0.034 0.027 0.052 0.008 0.015 0.015 0.031 0.025 0.046 0.019 0.029 0.042 0.056 0.065 0.080 0.002 0.002 0.003 0.005 0.006 0.006l4.329 4.328c0.222 0.222 0.581 0.222 0.803 0l3.929-3.927 3.928 3.927c0.111 0.111 0.257 0.166 0.402 0.166s0.29-0.055 0.401-0.166l3.927-3.926 3.929 3.926c0.222 0.222 0.582 0.222 0.803 0l3.927-3.926 3.927 3.926c0.222 0.222 0.582 0.222 0.803 0l3.93-3.927 3.927 3.927c0.111 0.111 0.257 0.166 0.401 0.166s0.291-0.055 0.402-0.166l3.927-3.926 3.93 3.926c0.221 0.222 0.582 0.222 0.803 0l4.329-4.328c0.008-0.008 0.015-0.018 0.022-0.027 0.016-0.019 0.033-0.037 0.047-0.058 0.013-0.019 0.022-0.040 0.033-0.061 0.007-0.013 0.015-0.024 0.019-0.038 0.012-0.026 0.017-0.052 0.024-0.079 0.003-0.009 0.007-0.017 0.009-0.026 0.008-0.039 0.012-0.077 0.012-0.116v-49.005c-0.002-0.074-0.017-0.148-0.046-0.217zM50.733 1.898l7.672 7.671h-7.672v-7.671zM59.208 58.911l-3.76 3.76-3.93-3.927c-0.221-0.221-0.581-0.221-0.803 0l-3.927 3.927-3.927-3.927c-0.222-0.221-0.581-0.221-0.803 0l-3.93 3.927-3.926-3.925c0-0.001-0.001-0.001-0.001-0.002-0.111-0.111-0.256-0.166-0.402-0.166s-0.291 0.056-0.401 0.166c-0.001 0.001-0.001 0.001-0.001 0.001l-3.926 3.926-3.929-3.927c-0.222-0.221-0.581-0.221-0.803 0l-3.927 3.927-3.928-3.927c-0.222-0.221-0.581-0.221-0.803 0l-3.929 3.927-3.761-3.76v-57.818h41.206v9.043c0 0.314 0.255 0.568 0.568 0.568h9.042l0.001 48.206z">
            </path>
            <path fill="#ff6b09" style="fill: var(--color3, #ff6b09)"
                d="M12.627 6.468h18.606c0.314 0 0.568-0.255 0.568-0.568s-0.255-0.568-0.568-0.568h-18.606c-0.314 0-0.568 0.255-0.568 0.568s0.254 0.568 0.568 0.568z">
            </path>
            <path fill="#ff6b09" style="fill: var(--color3, #ff6b09)"
                d="M12.627 9.982h29.837c0.314 0 0.568-0.255 0.568-0.568s-0.255-0.568-0.568-0.568h-29.837c-0.314 0-0.568 0.255-0.568 0.568s0.254 0.568 0.568 0.568z">
            </path>
            <path fill="#ff6b09" style="fill: var(--color3, #ff6b09)"
                d="M12.059 13.136v18.397c0 0.314 0.254 0.568 0.568 0.568h42.344c0.314 0 0.568-0.255 0.568-0.568v-18.397c0-0.314-0.254-0.568-0.568-0.568h-42.344c-0.314 0-0.568 0.255-0.568 0.568zM24.616 13.704h29.786v4.89h-29.786v-4.89zM24.616 19.731h29.786v4.888h-29.786v-4.888zM24.616 25.754h29.786v5.21h-29.786v-5.21zM13.196 13.704h10.285v4.89h-10.285v-4.89zM13.196 19.731h10.285v4.888h-10.285v-4.888zM13.196 25.754h10.285v5.21h-10.285v-5.21z">
            </path>
            <path fill="#ff6b09" style="fill: var(--color3, #ff6b09)"
                d="M54.972 34.658h-42.344c-0.314 0-0.568 0.255-0.568 0.568v18.397c0 0.314 0.254 0.568 0.568 0.568s0.568-0.254 0.568-0.568v-5.778h10.285v5.778c0 0.314 0.255 0.568 0.568 0.568 0.314 0 0.568-0.254 0.568-0.568v-5.778h29.786v5.778c0 0.314 0.255 0.568 0.568 0.568s0.568-0.254 0.568-0.568v-18.397c0.001-0.314-0.253-0.568-0.566-0.568zM23.48 46.708h-10.285v-4.887h10.285v4.887zM23.48 40.684h-10.285v-4.888h10.285v4.888zM54.403 46.708h-29.786v-4.887h29.786v4.887zM54.403 40.684h-29.786v-4.888h29.786v4.888z">
            </path>
            <path fill="#ff6b09" style="fill: var(--color3, #ff6b09)"
                d="M4.561-0.042c-0.314 0-0.568 0.255-0.568 0.568v58.621c0 0.313 0.255 0.568 0.568 0.568s0.568-0.255 0.568-0.568v-58.621c0-0.314-0.255-0.568-0.568-0.568z">
            </path>
            <path fill="#ff6b09" style="fill: var(--color3, #ff6b09)"
                d="M1.437-0.042c-0.314 0-0.568 0.255-0.568 0.568v58.621c0 0.313 0.255 0.568 0.568 0.568s0.568-0.255 0.568-0.568v-58.621c0-0.314-0.254-0.568-0.568-0.568z">
            </path>
        </symbol>
        <symbol id="tel" viewBox="0 0 66 64">
            <path fill="#ff6b09" style="fill: var(--color3, #ff6b09)"
                d="M9.635 0.005c-1.066 0.051-2.112 0.504-2.88 1.347l-5.368 5.901c0.008-0.018-0.021-0.015-0.173 0.2-0.081 0.111-0.144 0.234-0.187 0.365-2.185 6.96-0.72 14.616 2.848 21.898s9.259 14.25 15.793 19.968c6.534 5.718 13.906 10.192 20.936 12.411s13.845 2.19 18.896-1.475c0.055-0.041 0.107-0.085 0.154-0.134 0.132-0.132 0.137-0.149 0.115-0.129l0.020-0.025 5.342-5.875c1.535-1.688 1.411-4.34-0.277-5.875l-12.674-11.527c-1.688-1.535-4.34-1.413-5.876 0.275l-5.734 6.306c-4.655-1.348-8.634-3.633-12.462-7.114s-6.48-7.229-8.261-11.737l5.733-6.306c1.535-1.688 1.413-4.34-0.275-5.875l-12.674-11.527c-0.844-0.768-1.93-1.121-2.995-1.071l-0.002 0zM9.755 2.591c0.393-0.018 0.792 0.119 1.118 0.416l12.674 11.527c0.653 0.594 0.697 1.542 0.104 2.194l-6.337 6.965c-0.159 0.176-0.267 0.392-0.313 0.625s-0.026 0.474 0.055 0.697c1.923 5.249 5.026 9.554 9.295 13.438s8.845 6.566 14.253 7.985c0.23 0.060 0.473 0.057 0.701-0.011s0.434-0.196 0.594-0.373l6.339-6.967c0.594-0.653 1.54-0.696 2.193-0.102l12.675 11.527c0.653 0.594 0.696 1.54 0.102 2.193l-5.299 5.824c-4.145 2.975-9.984 3.142-16.523 1.078-6.564-2.072-13.691-6.365-19.999-11.885s-11.797-12.261-15.171-19.147c-3.339-6.815-4.55-13.704-2.714-19.776l5.176-5.689c0.297-0.326 0.683-0.501 1.076-0.519l0 0.001z">
            </path>
        </symbol>
        <symbol id="vk" viewBox="0 0 64 64">
            <path fill="#436eab" style="fill: var(--color4, #436eab)"
                d="M55.083 36.919c2.121 2.074 4.363 4.023 6.266 6.304 0.843 1.015 1.638 2.061 2.246 3.238 0.864 1.673 0.083 3.514-1.419 3.614l-9.323-0.004c-2.404 0.198-4.322-0.768-5.937-2.413-1.291-1.316-2.485-2.716-3.727-4.075-0.492-0.563-1.042-1.054-1.647-1.472l-0.030-0.019c-1.274-0.826-2.379-0.574-3.106 0.753-0.74 1.353-0.909 2.846-0.981 4.352-0.1 2.195-0.764 2.773-2.97 2.871-4.713 0.224-9.186-0.491-13.34-2.867-3.665-2.097-6.507-5.056-8.977-8.405-4.815-6.524-8.501-13.69-11.814-21.058-0.747-1.662-0.201-2.551 1.63-2.583 3.042-0.060 6.084-0.055 9.129-0.004 1.237 0.017 2.054 0.725 2.532 1.894 1.645 4.047 3.659 7.895 6.187 11.465 0.672 0.949 1.359 1.899 2.336 2.569 1.082 0.74 1.905 0.495 2.413-0.708 0.324-0.764 0.465-1.587 0.538-2.404 0.241-2.816 0.273-5.623-0.149-8.427-0.26-1.751-1.246-2.884-2.991-3.217-0.892-0.169-0.759-0.499-0.329-1.009 0.749-0.875 1.455-1.423 2.859-1.423h10.539c1.658 0.329 2.027 1.073 2.255 2.741l0.009 11.706c-0.019 0.646 0.322 2.564 1.487 2.991 0.93 0.305 1.545-0.439 2.103-1.030 2.524-2.677 4.324-5.843 5.931-9.12 0.715-1.44 1.329-2.938 1.924-4.431 0.442-1.109 1.131-1.655 2.383-1.632l10.14 0.009c0.303 0 0.606 0.004 0.896 0.055 1.711 0.29 2.178 1.024 1.651 2.694-0.832 2.618-2.449 4.8-4.032 6.991-1.692 2.34-3.499 4.602-5.178 6.955-1.54 2.15-1.419 3.234 0.495 5.101z">
            </path>
        </symbol>
    </defs>
</svg>