<svg aria-hidden="true" style="position:absolute;width:0;height:0" xmlns="http://www.w3.org/2000/svg" overflow="hidden"><defs><symbol id="instagram" viewBox="0 0 64 64"><path fill="var(--color1, #000)" d="M62.904 11.447A11.653 11.653 0 0052.552 1.095a193.295 193.295 0 00-41.105 0A11.654 11.654 0 001.095 11.447a193.295 193.295 0 000 41.105 11.655 11.655 0 0010.352 10.352 193.304 193.304 0 0041.106 0 11.655 11.655 0 0010.352-10.352 193.295 193.295 0 000-41.105z"/><path fill="var(--color1, #000)" d="M59.423 13.762a10.341 10.341 0 00-9.185-9.186 171.59 171.59 0 00-36.476 0 10.342 10.342 0 00-9.186 9.186 171.58 171.58 0 000 36.475 10.341 10.341 0 009.186 9.186 171.58 171.58 0 0036.475 0 10.34 10.34 0 009.186-9.186 171.448 171.448 0 000-36.475z"/><path fill="var(--color1, #000)" d="M.959 51.226c.044.442.089.885.137 1.327a11.655 11.655 0 0010.352 10.352 193.295 193.295 0 0041.105 0 11.655 11.655 0 0010.352-10.352c.047-.442.093-.885.137-1.327H.96z"/><path fill="var(--color1, #000)" d="M62.904 52.553a193.645 193.645 0 001.089-22.087L49.364 15.837c-1.828-2.086-4.497-3.389-7.634-3.502a275.645 275.645 0 00-19.373.001c-5.358.185-9.105 3.786-10.066 9.08-.169.935-.271 1.881-.404 2.823v15.519c.074.503.182 1.004.216 1.509.215 3.22 1.538 5.978 3.657 7.843l14.887 14.886c7.306.051 14.612-.312 21.907-1.091a11.655 11.655 0 0010.352-10.352z"/><path fill="var(--color1, #000)" d="M62.904 52.553a11.653 11.653 0 01-10.352 10.352 193.727 193.727 0 01-21.907 1.091L15.781 49.132c1.723 1.508 3.969 2.427 6.576 2.525 6.45.242 12.923.236 19.373.003 5.834-.211 10.056-4.529 10.238-10.363.194-6.194.194-12.405 0-18.599-.083-2.691-1.028-5.059-2.594-6.851l14.62 14.62a193.874 193.874 0 01-1.089 22.087z"/><path fill="var(--color1, #000)" d="M39.552 25.07A10.222 10.222 0 0032 21.749c-5.661 0-10.251 4.59-10.251 10.251 0 2.989 1.28 5.678 3.321 7.552l23.717 23.717c1.255-.109 2.511-.231 3.765-.365a11.655 11.655 0 0010.352-10.352c.134-1.254.255-2.51.365-3.765L39.552 25.07zM63.876 38.894L44.788 19.807a2.434 2.434 0 00-1.939-.964 2.439 2.439 0 00-2.439 2.439c0 .791.379 1.493.964 1.939l22.16 22.161c.15-2.162.264-4.324.341-6.487z"/><path fill="var(--color1, #000)" d="M11.886 24.238c.133-.941.235-1.888.404-2.823.96-5.293 4.708-8.895 10.066-9.08a275.645 275.645 0 0119.373-.001c5.832.21 10.056 4.528 10.238 10.362a297.29 297.29 0 010 18.6c-.182 5.834-4.404 10.152-10.237 10.362-6.451.233-12.923.239-19.373-.003-5.833-.219-9.865-4.547-10.255-10.39-.034-.505-.142-1.006-.216-1.509V24.238zm20.119 23.963c2.952 0 5.907.088 8.855-.021 4.623-.171 7.466-2.93 7.574-7.548.134-5.754.134-11.517 0-17.271-.108-4.617-2.953-7.441-7.574-7.539a418.124 418.124 0 00-17.601 0c-4.585.096-7.437 2.862-7.562 7.429a322.812 322.812 0 000 17.492c.124 4.566 2.976 7.268 7.562 7.438 2.911.108 5.83.021 8.745.021z"/><path fill="var(--color2, #fff)" d="M11.886 24.238c.133-.941.235-1.888.404-2.823.96-5.293 4.708-8.895 10.066-9.08a275.645 275.645 0 0119.373-.001c5.832.21 10.056 4.528 10.238 10.362a297.29 297.29 0 010 18.6c-.182 5.834-4.404 10.152-10.237 10.362-6.451.233-12.923.239-19.373-.003-5.833-.219-9.865-4.547-10.255-10.39-.034-.505-.142-1.006-.216-1.509V24.238zm20.119 23.963c2.952 0 5.907.088 8.855-.021 4.623-.171 7.466-2.93 7.574-7.548.134-5.754.134-11.517 0-17.271-.108-4.617-2.953-7.441-7.574-7.539a418.124 418.124 0 00-17.601 0c-4.585.096-7.437 2.862-7.562 7.429a322.812 322.812 0 000 17.492c.124 4.566 2.976 7.268 7.562 7.438 2.911.108 5.83.021 8.745.021z"/><path fill="var(--color2, #fff)" d="M32 21.749c-5.661 0-10.251 4.589-10.251 10.25S26.339 42.25 32 42.25c5.662 0 10.251-4.589 10.251-10.251S37.662 21.749 32 21.749zm0 16.972a6.722 6.722 0 110-13.444 6.722 6.722 0 010 13.444zM45.288 21.282a2.439 2.439 0 11-4.878 0 2.439 2.439 0 014.878 0z"/><radialGradient id="paint0_radial" cx="0" cy="0" r="1" gradientUnits="userSpaceOnUse" gradientTransform="translate(8.2 34.957) scale(44.113)"><stop stop-color="#FAE100"/><stop offset=".054" stop-color="#FADC04"/><stop offset=".117" stop-color="#FBCE0E"/><stop offset=".183" stop-color="#FCB720"/><stop offset=".251" stop-color="#FE9838"/><stop offset=".305" stop-color="#FF7950"/><stop offset=".492" stop-color="#FF1C74"/><stop offset="1" stop-color="#6C1CD1"/></radialGradient><linearGradient id="paint1_linear" x1="15.342" y1="17.379" x2="-52.423" y2="-20.738" gradientUnits="userSpaceOnUse"><stop stop-color="#A1B5D8" stop-opacity="0"/><stop offset=".309" stop-color="#90A2BD" stop-opacity=".31"/><stop offset=".755" stop-color="#7C8B9C" stop-opacity=".757"/><stop offset="1" stop-color="#748290"/></linearGradient><linearGradient id="paint2_linear" x1="20" y1="35.31" x2="20" y2="41.545" gradientUnits="userSpaceOnUse"><stop stop-color="#FAE100" stop-opacity="0"/><stop offset=".307" stop-color="#FCA800" stop-opacity=".306"/><stop offset=".627" stop-color="#FE7300" stop-opacity=".627"/><stop offset=".869" stop-color="#FF5200" stop-opacity=".867"/><stop offset="1" stop-color="#FF4500"/></linearGradient><linearGradient id="paint3_linear" x1="17.724" y1="17.668" x2="7.825" y2="7.769" gradientUnits="userSpaceOnUse"><stop stop-color="#833AB4" stop-opacity="0"/><stop offset="1" stop-color="#833AB4"/></linearGradient><linearGradient id="paint4_linear" x1="27.414" y1="36.585" x2="22.473" y2="13.292" gradientUnits="userSpaceOnUse"><stop stop-color="#833AB4" stop-opacity="0"/><stop offset="1" stop-color="#833AB4"/></linearGradient><linearGradient id="paint5_linear" x1="29.294" y1="29.294" x2="9.449" y2="9.449" gradientUnits="userSpaceOnUse"><stop stop-color="#833AB4" stop-opacity="0"/><stop offset="1" stop-color="#833AB4"/></linearGradient><linearGradient id="paint6_linear" x1="30.766" y1="17.286" x2="24.204" y2="10.724" gradientUnits="userSpaceOnUse"><stop stop-color="#833AB4" stop-opacity="0"/><stop offset="1" stop-color="#833AB4"/></linearGradient><linearGradient id="paint7_linear" x1="27.942" y1="12.113" x2="11.761" y2="28.294" gradientUnits="userSpaceOnUse"><stop stop-color="#833AB4"/><stop offset=".092" stop-color="#9C3495"/><stop offset=".293" stop-color="#DC2546"/><stop offset=".392" stop-color="#FD1D1D"/><stop offset=".559" stop-color="#FC6831"/><stop offset=".689" stop-color="#FC9B40"/><stop offset=".752" stop-color="#FCAF45"/><stop offset=".781" stop-color="#FDB750"/><stop offset=".866" stop-color="#FECB6A"/><stop offset=".942" stop-color="#FFD87A"/><stop offset="1" stop-color="#FFDC80"/></linearGradient><clipPath id="clip0"><path fill="#fff" d="M0 0h40v40H0z"/></clipPath></symbol><symbol id="arrow_left" viewBox="0 0 108 64"><path fill="var(--color3, #ff6b09)" d="M104 28a4 4 0 010 8v-8zM1.172 34.828a4 4 0 010-5.657L26.628 3.715a4 4 0 015.657 5.657L9.658 31.999l22.627 22.628a4 4 0 01-5.657 5.657L1.172 34.828zM104 36H4v-8h100v8z"/></symbol><symbol id="arrow_right" viewBox="0 0 108 64"><path fill="var(--color3, #ff6b09)" d="M4 28a4 4 0 000 8v-8zm102.828 6.828a4 4 0 000-5.657L81.372 3.715a4 4 0 00-5.657 5.657l22.628 22.627-22.628 22.628a4 4 0 005.657 5.657l25.456-25.456zM4 36h100v-8H4v8z"/></symbol><symbol id="campfire" viewBox="0 0 47 64"><path fill="var(--color3, #ff6b09)" d="M43.817 33.186c-.567-1.27-1.349-2.521-2.493-3.966-2.885-3.627-3.764-11.714-3.774-11.791a.975.975 0 00-.675-.824.993.993 0 00-1.037.281c-3.442 3.85-1.995 9.794-1.212 12.17.215.65.45 1.416.616 2.192 1.271 6.274-1.183 9.115-1.76 9.687-.557.155-.939.078-1.291-.301-1.212-1.328-1.613-5.682-1.046-11.355.117-1.154.088-2.192-.078-3.161-1.196-6.972-5.581-11.445-6.698-13.013-3.07-4.538-3.383-12.092-3.393-12.16a.949.949 0 00-.538-.834.977.977 0 00-.988.068c-5.124 3.481-4.684 11.869-3.97 16.553.166 1.086.489 2.192 1.046 3.588 1.985 4.994-.391 11.442-.411 11.501s-.039.107-.049.165c-.303 1.59-.812 2.541-1.379 2.541a.687.687 0 01-.186-.029c-.694-.145-1.056-.882-1.066-1.522-.039-8.272-8.34-11.055-8.428-11.084a.972.972 0 00-1.036.291.955.955 0 00-.137 1.067c.098.204.411 1.096.196 4.247a36.232 36.232 0 01-1.535 8.32C.52 42.256.833 48.355.852 48.646c1.519 16.515 25.27 19.408 39.365 10.104 1.545-1.018 2.806-2.182 3.735-3.462 5.202-7.176 2.141-16.921-.137-22.099zM7.688 48.963a.969.969 0 01-.919 1.018H6.71a.973.973 0 01-.978-.911c-.088-1.416-.068-2.899.039-4.509a.987.987 0 011.046-.902.977.977 0 01.909 1.037c-.108 1.532-.127 2.929-.039 4.267zm.479-8.592a.97.97 0 01-.968.853c-.039 0-.078 0-.127-.01a.98.98 0 01-.851-1.077l.469-3.743a.987.987 0 011.095-.844.974.974 0 01.851 1.086l-.469 3.733zM37.202 13.266a.97.97 0 01-.817-1.105c.061-.394.414-2.411 1.373-3.425a.982.982 0 011.382-.044c.394.366.414.98.044 1.371-.406.429-.751 1.659-.867 2.394a.977.977 0 01-1.116.809zM1.556 18.097c-.187-.721-.652-1.91-1.099-2.299a.964.964 0 01-.091-1.368.982.982 0 011.38-.09c1.054.916 1.604 2.889 1.704 3.275a.968.968 0 01-.704 1.179.98.98 0 01-1.191-.697z"/></symbol><symbol id="check" viewBox="0 0 80 64"><path fill="var(--color3, #ff6b09)" d="M68.914 3.027c-2.969 1.328-5.814 2.95-8.53 4.758-5.462 3.594-10.455 7.873-15.139 12.436-4.682 4.575-9.041 9.47-13.162 14.561a7511.372 7511.372 0 01-5.646 6.941L7.244 12.963-.001 33.046 25.953 64c2.52-5.102 4.946-10.139 7.325-14.516.591-1.113 1.21-2.16 1.802-3.224 0 0 3.046-5.354 3.847-6.703 3.203-5.395 6.665-10.649 10.477-15.641 3.817-4.983 7.966-9.74 12.67-13.921 2.34-2.105 4.832-4.051 7.501-5.744 2.664-1.697 5.494-3.183 8.522-4.25-3.149.62-6.222 1.696-9.184 3.027z"/></symbol><symbol id="female-student" viewBox="0 0 53 64"><path fill="var(--color3, #ff6b09)" d="M-.205 63.517h53.569c.265-6.109-.172-16.245-3.928-21.069l-.136-.173-8.208-4.121a8.055 8.055 0 00.301-1.557 2.846 2.846 0 00-.2-1.356c-1.354-3.24-4.219-4.945-5.795-5.672.48-.968.79-2.006.939-3.068a2.632 2.632 0 001.845-1.902l.958-3.892a2.631 2.631 0 00-.302-2.004 2.624 2.624 0 00-.588-.669c2.701-6.136-1.823-11.921-2.069-12.225C31.282.512 25.092 1.502 24.765 1.561c-8.932 1.87-12.379 8.716-10.433 16.744a2.634 2.634 0 00-.605 2.401l.963 3.896a2.63 2.63 0 001.831 1.895 10.019 10.019 0 002.305 5.119v3.085c-12.818 6.564-4.696 2.376-14.968 7.573-.02.097-4.82 5.198-4.106 20.317l.043.924zm51.708-1.939h-8.817v-3.704l5.831-13.349c2.921 4.849 3.03 14.106 2.985 17.053zM39.47 36.433c-.34 3.908-2.484 2.727-3.807 5.738-1.041-1.144-1.354-2.517-1.074-3.985.505-2.697-1.141-3.498-.734-6.332l.062-.065v-.009c.035-.039.36-.426.454-.548 3.488 1.521 5.167 4.349 5.099 5.201zm-18.713-3.072a9.93 9.93 0 0011.149.15c.223 2.228 1.094 2.674.785 4.313a7.265 7.265 0 00-.108.899l-6.004 6.767-7.675-8.653 1.853-.967v-2.509zm-2.414-8.282v-3.752-6.592c.935-1.728 2.208-2.982 3.792-3.733 4.24 2.399 9.121 5.979 12.394 9.583-.003 4.589.013 4.601-.018 4.978l-.002.024c-.255 4.167-3.682 7.621-8.076 7.621-4.271 0-7.818-3.354-8.074-7.662a5.546 5.546 0 01-.016-.467zm-1.195 12.694l9.432 10.633 6.332-7.137c.145.417.348.81.58 1.191l-6.912 8.644-10.308-12.891.876-.439zM36.46 23.518v-2.996l.72-.825c.04 1.517.203-.273-.72 3.821zM25.123 3.468c.383.024 5.53-.783 9.598 3.609.16.201 3.472 4.468 2.141 9.135-.455-2.077-1.249-4.738-2.503-6.008l-1.371 1.366c1.239 1.254 2.052 5.074 2.362 7.055-5.681-5.944-13.009-9.707-13.109-9.77-.367.229-3.469.818-5.721 5.195l-.107.209v3.215l-.284.003c-1.431-6.909 1.309-12.397 8.995-14.008zm-9.198 16.003l.487 1.974v2.075l-.81-3.278c-.119-.489.243-.674.323-.771zm-1.42 19.628L26.58 54.201l8.17-10.218c.889.795 1.316.908 3.2 1.877l-.635-2.156c-.161-.547.477-1.425.863-1.829a5.843 5.843 0 002.115-1.955l6.666 3.347-6.203 14.2v4.11H12.405v-4.11L6.2 43.269l8.307-4.17zM4.641 44.53l5.832 13.345v3.703H1.657c-.044-2.946.065-12.198 2.984-17.048z"/></symbol><symbol id="Group" viewBox="0 0 65 64"><path fill="var(--color3, #ff6b09)" d="M3.986 25.116v5.663c0 .304.14.591.379.78a22.198 22.198 0 0013.674 4.724c1.481 0 2.963-.155 4.412-.447a24.043 24.043 0 009.78 2.064c3.414 0 6.703-.699 9.781-2.064 6.182 1.248 12.769-.092 18.085-4.277a.995.995 0 00.379-.78v-5.663c0-.831-.413-1.588-1.15-2.054l-7.734-4.351c1.692-2.147 2.952-5.204 3.172-7.826.642-4.513-3.036-9.293-8.331-9.293-2.226 0-4.343.916-5.896 2.454-.054.053-.115.098-.167.153-.048.05-.087.108-.133.16-.031.034-.058.072-.089.106C38.635 1.706 35.726.001 32.299.001c-.333 0-.66.023-.984.056-.02-.001-.036-.011-.056-.011-.184 0-.573.048-.781.108-.031.009-.053.031-.082.042a8.962 8.962 0 00-6.026 4.312 8.351 8.351 0 00-6.358-2.914c-7.816 0-11.284 9.224-5.114 17.162l-7.806 4.333a2.383 2.383 0 00-1.106 2.028zm38.007 8.54c-.168.082-.334.169-.503.246l-.004.002a22.003 22.003 0 01-9.255 2.012 22.083 22.083 0 01-13.349-4.455v-5.74c0-.196.095-.369.204-.442l9.084-5.049c1.13.959 2.574 1.663 4.07 1.663 1.441 0 2.997-.714 4.105-1.687l8.974 5.039a.555.555 0 01.261.475v5.739a22.207 22.207 0 01-3.587 2.196zm16.315-8.893a.405.405 0 01.184.353v5.175c-3.937 2.955-8.674 4.296-13.474 3.959a26.656 26.656 0 002.166-1.521.993.993 0 00.38-.781V25.72c0-.87-.437-1.671-1.22-2.173l-4.767-2.679 1.159-.642c1.406 1.147 2.613 1.488 3.697 1.488 1.325 0 2.72-.65 3.756-1.518l8.12 4.567zM46.432 3.576c2.761 0 5.186 1.804 6.043 4.285a7.398 7.398 0 01-4.473-2.284.99.99 0 00-1.577.168c-1.131 1.895-2.986 3.16-5.095 3.519v-.006a9.9 9.9 0 00-.065-1.306c-.005-.045-.009-.089-.015-.133a10.911 10.911 0 00-.243-1.217c1.126-1.804 3.218-3.026 5.426-3.026zm-5.32 7.711a9.288 9.288 0 006.329-3.524c1.534 1.258 3.481 2.021 5.404 2.113-.015 3.584-2.942 9.854-6.412 9.854-2.674 0-4.958-3.825-5.811-6.476.217-.682.375-1.338.491-1.967zm.202 7.459l-1.772.981-1.789-1.005a15.927 15.927 0 001.793-2.827 14.577 14.577 0 001.768 2.851zm-2.674-5.817c-.956 2.853-3.41 6.98-6.399 6.98-3.485 0-6.452-5.728-7.017-9.392.151-.037 4.859.253 8.099-4.002 1.645 1.376 3.863 2.286 6.021 2.377.025 1.293-.288 2.812-.704 4.037zM32.299 1.984c5.559 0 6.618 4.785 6.705 4.884-2.016-.205-3.855-1.192-5.126-2.551a.99.99 0 00-1.579.172c-1.101 1.863-2.828 3.177-4.828 3.736a8.611 8.611 0 01-2.333.307c.272-3.644 3.192-6.548 7.161-6.548zm-7.377 13.892a15.863 15.863 0 001.825 2.877l-1.751.973-1.814-1.019a15.494 15.494 0 001.739-2.83zm-6.91-12.299c2.249 0 4.31 1.141 5.458 3.028-.058.2-.213.996-.233 1.095a7.33 7.33 0 01-3.641-2.125.989.989 0 00-1.577.172 7.424 7.424 0 01-6.354 3.63c.316-3.254 3.036-5.8 6.347-5.8zm-6.26 7.778a9.415 9.415 0 007.285-3.592 9.25 9.25 0 004.111 1.922c.058 1.15.358 2.547.701 3.577-.548 1.679-1.598 3.681-2.901 5.011-.008.008-.019.012-.027.021-.815.859-1.976 1.437-2.888 1.437-3.188 0-5.681-5.016-6.28-8.376zM5.97 25.116c0-.15.067-.278.135-.324l8.232-4.568c.494.411.607.458.707.531v.001c.969.644 1.857.965 3.068.965 1.29 0 2.465-.547 3.498-1.388.058-.046.121-.09.176-.136l1.175.661-4.893 2.721a2.541 2.541 0 00-1.168 2.142v6.228c0 .304.14.592.38.78a26.505 26.505 0 002.166 1.523c-4.869.332-9.606-1.057-13.475-3.96v-5.175z"/><path fill="var(--color3, #ff6b09)" d="M62.517 41.562a4.123 4.123 0 00-4.014-.22l-12.239 5.913a4.221 4.221 0 00-4.214-4.143l-7.018.002c-3.46-3.008-7.883-4.85-11.904-4.947-3.965-.094-7.525-.12-9.185-.128v-2.004H0v23.034h13.943v-2.758c3.824 2.194 13.878 7.69 18.649 7.69a5.4 5.4 0 00.316-.009c8.391-.471 28.181-14.397 29.487-15.321a4.157 4.157 0 002.068-3.591 4.127 4.127 0 00-1.946-3.517zM11.96 57.085H1.984V38.018h9.976v19.067zm49.414-10.116a.997.997 0 00-.088.055c-.204.145-20.561 14.542-28.488 14.987a4.698 4.698 0 01-.241.006c-4.185 0-14.388-5.505-18.613-8.002V40.022c1.654.007 5.193.034 9.138.128 3.673.088 7.752 1.842 10.911 4.691l.283.256 7.775-.002c1.234 0 2.238 1.003 2.238 2.237s-1.003 2.238-2.237 2.238H27.768v1.983h14.284c1.369 0 2.575-.665 3.347-1.679l13.968-6.747a2.125 2.125 0 012.098.114 2.127 2.127 0 011.016 1.836 2.17 2.17 0 01-1.105 1.89zM33.223 24.317H31.24v1.839h1.983v-1.839zM33.223 27.985H31.24v1.839h1.983v-1.839zM33.223 31.652H31.24v1.839h1.983v-1.839z"/></symbol><symbol id="insurance" viewBox="0 0 56 64"><path fill="var(--color3, #ff6b09)" d="M1.084 27.484c0 .714-1.084.714-1.084 0C0 12.308 12.308 0 27.484 0c15.183 0 27.484 12.308 27.484 27.484 0 .714-1.077.714-1.077 0 0-10.258-16.856-10.264-16.856 0 0 .714-1.11.714-1.11 0 0-10.232-16.882-10.232-16.882 0 0 .714-1.109.714-1.109 0 0-10.212-16.85-10.284-16.85 0zM18.031 23.5c.292-5.904 1.22-11.199 2.569-15.241 1.077-3.212 2.44-5.651 3.984-7.02-11.588 1.265-20.97 10.05-23.066 21.444 3.99-5.755 13.204-5.294 16.513.817zm17.81-.266c-.299-5.677-1.2-10.758-2.498-14.631-3.348-10.024-8.37-10.024-11.718 0-1.298 3.873-2.193 8.954-2.498 14.631 3.601-6.118 13.113-6.118 16.714 0zm17.609-.551C51.361 11.29 41.979 2.505 30.384 1.239c1.551 1.369 2.907 3.809 3.984 7.02 1.349 4.042 2.277 9.337 2.569 15.241 3.328-6.144 12.568-6.508 16.513-.817zM23.877 40.06v-5.581c-1.006.668-1.797 1.7-1.797 2.959 0 1.227.805 2.038 1.797 2.622zm1.083 1.733c-1.927-.883-3.958-1.914-3.958-4.355 0-2.518 1.914-3.777 3.958-4.718v9.072zM31.092 48.48v5.645c1.019-.675 1.817-1.713 1.817-2.972 0-1.239-.817-2.076-1.817-2.673zm-1.077-1.739c1.933.895 3.977 1.959 3.977 4.412 0 2.524-1.927 3.783-3.977 4.717v-9.129z"/><path fill="var(--color3, #ff6b09)" d="M31.092 28.126c4.438 1.025 8.999 4.347 8.999 9.311 0 4.25-7.183 4.094-7.183 0 0-1.265-.798-2.303-1.817-2.972v7.942c4.107 1.343 9.012 3.75 9.012 8.746 0 4.97-4.561 8.286-9.012 9.304-.019 4.73-7.202 4.724-7.215-.006-2.53-.584-4.73-1.765-6.32-3.329-1.667-1.648-2.654-3.718-2.654-5.969 0-4.185 7.176-4.185 7.176 0 0 1.252.792 2.284 1.797 2.952V46.17c-4.075-1.317-9.006-3.796-9.006-8.746 0-4.97 4.561-8.286 9.006-9.304.019-4.73 7.202-4.724 7.215.006zm-6.132.013v.863c-4.224.837-9.012 3.543-9.012 8.422 0 4.691 5.255 6.793 9.012 7.955v10.485c-2.031-.928-3.958-2.18-3.958-4.711 0-2.764-5.022-2.764-5.022 0 0 1.953.869 3.757 2.336 5.197 1.862 1.843 4.12 2.719 6.644 3.218v.869c0 3.329 5.054 3.329 5.054 0v-.863c4.237-.843 9.006-3.549 9.006-8.422 0-4.737-5.242-6.774-9.006-7.961V32.712c2.037.928 3.977 2.18 3.977 4.724 0 2.693 5.015 2.803 5.015 0 0-4.873-4.762-7.585-8.993-8.428v-.869c0-3.329-5.054-3.329-5.054 0z"/></symbol><symbol id="mobile-learning" viewBox="0 0 65 64"><path fill="var(--color3, #ff6b09)" d="M60.35-.256H28.858a3.722 3.722 0 00-3.718 3.718v13.036l-23.396 9.82a.76.76 0 00-.097 1.356l2.984 1.786v19.03a3.438 3.438 0 00-2.671 3.347v1.834c0 .421.341.762.762.762h5.343a.762.762 0 00.762-.762v-1.834a3.44 3.44 0 00-2.672-3.346V30.372l2.359 1.412c-.072.544-.009-.948-.034 8.86 0 3.224 8.258 4.951 16.66 5.05v14.851c0 .767.235 1.481.636 2.073a3.715 3.715 0 003.079 1.64h31.492a3.719 3.719 0 003.714-3.714c0 .102-.004-3.146 0-57.079 0-2.022-1.672-3.718-3.712-3.718zM7.303 51.836v1.072H3.484v-1.072c0-1.056.855-1.915 1.905-1.915 1.056 0 1.914.859 1.914 1.915zM60.35 62.728H28.858a2.197 2.197 0 01-1.818-.963 2.182 2.182 0 01-.375-1.223v-5.148h35.869v5.15a2.204 2.204 0 01-2.185 2.185zm2.185-8.858H26.664v-8.173c4.102-.047 16.67-.95 16.67-5.054-.005-6.161.011-8.66-.019-8.871l6.842-4.098a.76.76 0 00-.097-1.356l-23.395-9.82v-6.364h35.871V53.87zM25.902 35.584c-4.226 0-12.363.546-15.898 2.854.022-7.06-.245-6.601.624-7.199 2.196-1.617 8.477-2.746 15.274-2.746 2.965 0 15.908.815 15.908 3.556v6.391c-3.568-2.33-11.664-2.855-15.908-2.855zm.764-32.122c0-1.208.983-2.191 2.191-2.191h31.492c1.209 0 2.187.996 2.187 2.19v5.148H26.667V3.461zm-.764 14.368l22.18 9.31-5.496 3.289c-2.922-2.898-12.587-3.46-16.684-3.46-4.102 0-13.768.564-16.684 3.46l-5.497-3.29 22.181-9.31zM10.004 40.643c0-1.233 5.46-3.535 15.898-3.535 10.444 0 15.908 2.302 15.908 3.535 0 1.234-5.464 3.536-15.908 3.536-10.438 0-15.898-2.302-15.898-3.536z"/><path fill="var(--color3, #ff6b09)" d="M44.602 56.543c-1.389 0-2.52 1.13-2.52 2.52s1.13 2.521 2.52 2.521c1.39 0 2.52-1.131 2.52-2.521s-1.13-2.52-2.52-2.52zm0 3.516a.998.998 0 010-1.993.997.997 0 010 1.993zM47.509 4.179h-5.813v1.524h5.813V4.179z"/></symbol><symbol id="audio-book" viewBox="0 0 77 64"><path fill="var(--color3, #ff6b09)" d="M6.095 58.905h24.46a7.472 7.472 0 006.76 4.231h1.545c2.93 0 5.522-1.66 6.762-4.231h24.473a4.576 4.576 0 004.571-4.571v-43.81a4.576 4.576 0 00-4.571-4.571h-2.469V3.911A3.051 3.051 0 0064.578.863H11.596a3.052 3.052 0 00-3.048 3.048v2.042H6.094a4.576 4.576 0 00-4.571 4.571v43.81a4.576 4.576 0 004.571 4.571zm58.481-9.402H39.619v-35.41c5.768.755 10.241 5.69 10.241 11.661v1.374l-.362-.08a1.52 1.52 0 00-1.815 1.161l-2.426 11.039a1.522 1.522 0 001.161 1.813l5.243 1.156c.271.057.546.087.821.087a3.888 3.888 0 003.815-3.07L57.7 32.85a3.906 3.906 0 00-2.969-4.648l-1.824-.402v-2.046c0-7.655-5.834-13.972-13.289-14.741V3.91h24.96l-.003 45.592zm-14.244-19.15l3.743.824a.844.844 0 01.65 1.016l-1.403 6.382c-.101.461-.612.748-1.015.662l-3.747-.826 1.772-8.059zM11.597 3.911h24.975v7.1c-7.462.762-13.303 7.083-13.303 14.743v2.045l-1.827.404a3.879 3.879 0 00-2.445 1.707 3.86 3.86 0 00-.519 2.937l1.4 6.377c.379 1.785 1.985 3.08 3.819 3.08.275 0 .551-.03.832-.089l5.22-1.153a1.523 1.523 0 001.159-1.813L28.482 28.21a1.518 1.518 0 00-.668-.957 1.54 1.54 0 00-1.149-.204l-.348.077v-1.371c0-5.976 4.48-10.915 10.256-11.663v35.413H11.598V3.913zm14.235 26.444l1.774 8.059-3.726.823a.865.865 0 01-1.024-.656l-1.403-6.391a.835.835 0 01.11-.638.856.856 0 01.536-.374l3.734-.824zM4.571 10.524c0-.84.683-1.524 1.524-1.524h2.454v40.503a3.052 3.052 0 003.048 3.048h52.982a3.052 3.052 0 003.048-3.048V9h2.469c.841 0 1.524.684 1.524 1.524v43.81c0 .84-.683 1.524-1.524 1.524H44.587c-.67 0-1.26.437-1.457 1.077a4.443 4.443 0 01-4.269 3.155h-1.545c-1.967 0-3.682-1.263-4.275-3.173a1.524 1.524 0 00-1.451-1.059H6.096a1.526 1.526 0 01-1.524-1.524v-43.81z"/></symbol><symbol id="open-book" viewBox="0 0 92 64"><path fill="var(--color3, #ff6b09)" d="M40.533 9.216H13.254v2.043h27.279V9.216zM40.533 16.831H17.339v2.043h23.194v-2.043zM40.533 24.448H13.254v2.043h27.279v-2.043zM40.533 32.063H17.339v2.043h23.194v-2.043zM40.533 39.679H13.254v2.043h27.279v-2.043zM40.533 47.295H17.339v2.043h23.194v-2.043zM77.98 9.216H50.701v2.043H77.98V9.216zM73.895 16.831H50.701v2.043h23.194v-2.043zM77.98 24.448H50.701v2.043H77.98v-2.043zM73.895 32.063H50.701v2.043h23.194v-2.043zM77.98 39.679H50.701v2.043H77.98v-2.043zM73.895 47.295H50.701v2.043h23.194v-2.043z"/><path fill="var(--color3, #ff6b09)" d="M87.83 6.891h-3.745V1.267A1.02 1.02 0 0083.064.246H52.535a7.9 7.9 0 00-6.917 4.022A7.901 7.901 0 0038.699.246H8.17a1.02 1.02 0 00-1.021 1.021v5.624H3.404a1.02 1.02 0 00-1.021 1.021v54.822a1.02 1.02 0 001.021 1.021h84.425a1.02 1.02 0 001.021-1.021V7.912a1.02 1.02 0 00-1.021-1.021zM52.535 2.288h29.508v54.7H50.356c-1.405 0-2.809.592-3.717 1.36V8.17c0-3.26 2.61-5.883 5.896-5.883zm-43.344 0h29.508c3.193 0 5.778 2.485 5.884 5.658.001.044.005.182.013.225v50.174c-.906-.765-2.295-1.356-3.704-1.356h-31.7v-54.7zM4.426 8.933h2.723v49.076A1.02 1.02 0 008.17 59.03h32.721a3.704 3.704 0 013.543 2.682H4.425V8.933zm82.383 52.779H46.801a3.69 3.69 0 013.556-2.682h32.708a1.02 1.02 0 001.021-1.021V8.933h2.723v52.779z"/></symbol><symbol id="study-program" viewBox="0 0 61 64"><path fill="var(--color3, #ff6b09)" d="M60.301 9.921l-.001-.005a.518.518 0 00-.048-.09l-.005-.006a.588.588 0 00-.067-.084L50.568.125a.502.502 0 00-.081-.065l-.018-.012a.56.56 0 00-.072-.039L50.375 0a.582.582 0 00-.198-.04l-.01-.001H7.824a.568.568 0 00-.568.568v58.621c0 .037.003.074.011.111.003.016.009.031.014.046.006.02.011.04.019.06a.87.87 0 00.027.052c.008.015.015.031.025.046a.567.567 0 00.065.08c.002.002.003.005.006.006l4.329 4.328a.567.567 0 00.803 0l3.929-3.927 3.928 3.927a.567.567 0 00.803 0l3.927-3.926 3.929 3.926a.567.567 0 00.803 0l3.927-3.926 3.927 3.926a.567.567 0 00.803 0l3.93-3.927 3.927 3.927a.566.566 0 00.803 0l3.927-3.926 3.93 3.926a.567.567 0 00.803 0l4.329-4.328c.008-.008.015-.018.022-.027.016-.019.033-.037.047-.058.013-.019.022-.04.033-.061.007-.013.015-.024.019-.038.012-.026.017-.052.024-.079.003-.009.007-.017.009-.026a.571.571 0 00.012-.116V10.139a.603.603 0 00-.046-.217zm-9.568-8.023l7.672 7.671h-7.672V1.898zm8.475 57.013l-3.76 3.76-3.93-3.927a.57.57 0 00-.803 0l-3.927 3.927-3.927-3.927a.57.57 0 00-.803 0l-3.93 3.927-3.926-3.925-.001-.002a.565.565 0 00-.803 0l-.001.001-3.926 3.926-3.929-3.927a.57.57 0 00-.803 0l-3.927 3.927-3.928-3.927a.57.57 0 00-.803 0l-3.929 3.927-3.761-3.76V1.093h41.206v9.043c0 .314.255.568.568.568h9.042l.001 48.206z"/><path fill="var(--color3, #ff6b09)" d="M12.627 6.468h18.606a.568.568 0 000-1.136H12.627a.568.568 0 000 1.136zM12.627 9.982h29.837a.568.568 0 000-1.136H12.627a.568.568 0 000 1.136zM12.059 13.136v18.397c0 .314.254.568.568.568h42.344a.568.568 0 00.568-.568V13.136a.568.568 0 00-.568-.568H12.627a.568.568 0 00-.568.568zm12.557.568h29.786v4.89H24.616v-4.89zm0 6.027h29.786v4.888H24.616v-4.888zm0 6.023h29.786v5.21H24.616v-5.21zm-11.42-12.05h10.285v4.89H13.196v-4.89zm0 6.027h10.285v4.888H13.196v-4.888zm0 6.023h10.285v5.21H13.196v-5.21zM54.972 34.658H12.628a.568.568 0 00-.568.568v18.397a.568.568 0 101.136 0v-5.778h10.285v5.778a.568.568 0 001.136 0v-5.778h29.786v5.778a.568.568 0 001.136 0V35.226a.566.566 0 00-.566-.568zM23.48 46.708H13.195v-4.887H23.48v4.887zm0-6.024H13.195v-4.888H23.48v4.888zm30.923 6.024H24.617v-4.887h29.786v4.887zm0-6.024H24.617v-4.888h29.786v4.888zM4.561-.042a.568.568 0 00-.568.568v58.621a.569.569 0 001.136 0V.526a.568.568 0 00-.568-.568zM1.437-.042a.568.568 0 00-.568.568v58.621a.569.569 0 001.136 0V.526a.568.568 0 00-.568-.568z"/></symbol><symbol id="tel" viewBox="0 0 66 64"><path fill="var(--color3, #ff6b09)" d="M9.635.005a4.151 4.151 0 00-2.88 1.347L1.387 7.253c.008-.018-.021-.015-.173.2a1.314 1.314 0 00-.187.365c-2.185 6.96-.72 14.616 2.848 21.898s9.259 14.25 15.793 19.968c6.534 5.718 13.906 10.192 20.936 12.411s13.845 2.19 18.896-1.475c.055-.041.107-.085.154-.134.132-.132.137-.149.115-.129l.02-.025 5.342-5.875c1.535-1.688 1.411-4.34-.277-5.875L52.18 37.055c-1.688-1.535-4.34-1.413-5.876.275l-5.734 6.306c-4.655-1.348-8.634-3.633-12.462-7.114s-6.48-7.229-8.261-11.737l5.733-6.306c1.535-1.688 1.413-4.34-.275-5.875L12.631 1.077A4.15 4.15 0 009.636.006h-.002zm.12 2.586c.393-.018.792.119 1.118.416l12.674 11.527c.653.594.697 1.542.104 2.194l-6.337 6.965a1.31 1.31 0 00-.258 1.322c1.923 5.249 5.026 9.554 9.295 13.438s8.845 6.566 14.253 7.985a1.304 1.304 0 001.295-.384l6.339-6.967c.594-.653 1.54-.696 2.193-.102l12.675 11.527c.653.594.696 1.54.102 2.193l-5.299 5.824c-4.145 2.975-9.984 3.142-16.523 1.078-6.564-2.072-13.691-6.365-19.999-11.885S9.59 35.461 6.216 28.575C2.877 21.76 1.666 14.871 3.502 8.799L8.678 3.11a1.55 1.55 0 011.076-.519v.001z"/></symbol><symbol id="vk" viewBox="0 0 64 64"><path fill="var(--color4, #436eab)" d="M55.083 36.919c2.121 2.074 4.363 4.023 6.266 6.304.843 1.015 1.638 2.061 2.246 3.238.864 1.673.083 3.514-1.419 3.614l-9.323-.004c-2.404.198-4.322-.768-5.937-2.413-1.291-1.316-2.485-2.716-3.727-4.075a8.902 8.902 0 00-1.647-1.472l-.03-.019c-1.274-.826-2.379-.574-3.106.753-.74 1.353-.909 2.846-.981 4.352-.1 2.195-.764 2.773-2.97 2.871-4.713.224-9.186-.491-13.34-2.867-3.665-2.097-6.507-5.056-8.977-8.405C7.323 32.272 3.637 25.106.324 17.738c-.747-1.662-.201-2.551 1.63-2.583 3.042-.06 6.084-.055 9.129-.004 1.237.017 2.054.725 2.532 1.894 1.645 4.047 3.659 7.895 6.187 11.465.672.949 1.359 1.899 2.336 2.569 1.082.74 1.905.495 2.413-.708.324-.764.465-1.587.538-2.404.241-2.816.273-5.623-.149-8.427-.26-1.751-1.246-2.884-2.991-3.217-.892-.169-.759-.499-.329-1.009.749-.875 1.455-1.423 2.859-1.423h10.539c1.658.329 2.027 1.073 2.255 2.741l.009 11.706c-.019.646.322 2.564 1.487 2.991.93.305 1.545-.439 2.103-1.03 2.524-2.677 4.324-5.843 5.931-9.12.715-1.44 1.329-2.938 1.924-4.431.442-1.109 1.131-1.655 2.383-1.632l10.14.009c.303 0 .606.004.896.055 1.711.29 2.178 1.024 1.651 2.694-.832 2.618-2.449 4.8-4.032 6.991-1.692 2.34-3.499 4.602-5.178 6.955-1.54 2.15-1.419 3.234.495 5.101z"/></symbol></defs></svg>