<svg xmlns="http://www.w3.org/2000/svg" fill="none" viewBox="0 0 407 472">
  <defs/>
  <g fill="#3D3D3D" clip-path="url(#clip0)">
    <path d="M450.8 341.94c-5.5-12.33-13.08-24.46-24.17-38.48-27.96-35.2-36.5-113.66-36.6-114.42a9.47 9.47 0 00-6.53-8 9.6 9.6 0 00-10.05 2.73c-33.37 37.36-19.34 95.03-11.75 118.09a206 206 0 015.97 21.26c12.32 60.88-11.47 88.45-17.06 94-5.4 1.5-9.1.75-12.52-2.92-11.75-12.89-15.64-55.14-10.14-110.18 1.14-11.2.85-21.26-.76-30.67-11.6-67.66-54.1-111.05-64.93-126.27-29.77-44.04-32.8-117.33-32.9-118a9.21 9.21 0 00-5.2-8.08 9.46 9.46 0 00-9.58.65c-49.67 33.78-45.4 115.17-38.49 160.62 1.62 10.54 4.74 21.26 10.15 34.81 19.24 48.46-3.8 111.03-3.99 111.6-.19.56-.38 1.03-.47 1.6-2.94 15.42-7.87 24.64-13.37 24.64a6.5 6.5 0 01-1.8-.28c-6.73-1.4-10.23-8.56-10.33-14.77-.38-80.26-80.86-107.26-81.7-107.55a9.43 9.43 0 00-10.06 2.83 9.26 9.26 0 00-1.32 10.35c.94 1.97 3.98 10.63 1.9 41.2a351.7 351.7 0 01-14.89 80.74C31.06 429.92 34.1 489.1 34.28 491.92c14.73 160.24 244.98 188.32 381.64 98.04 14.97-9.88 27.2-21.17 36.2-33.59 50.44-69.62 20.77-164.19-1.32-214.43zM100.55 495.03a9.4 9.4 0 01-8.92 9.88h-.56a9.43 9.43 0 01-9.48-8.85c-.86-13.74-.67-28.13.38-43.75a9.57 9.57 0 0110.14-8.75c5.21.37 9.2 4.89 8.81 10.06-1.04 14.87-1.23 28.42-.38 41.4zm4.64-83.37a9.4 9.4 0 01-9.39 8.28c-.37 0-.75 0-1.23-.1a9.49 9.49 0 01-8.24-10.44l4.55-36.32a9.57 9.57 0 0110.61-8.18 9.44 9.44 0 018.25 10.54l-4.55 36.22zM360.66 128.73a9.41 9.41 0 01-7.92-10.73c.6-3.82 4.02-23.4 13.31-33.23 3.58-3.8 9.57-4 13.4-.43a9.36 9.36 0 01.43 13.3c-3.93 4.17-7.28 16.1-8.4 23.23a9.48 9.48 0 01-10.82 7.86zM15.08 175.6c-1.8-7-6.32-18.54-10.65-22.31A9.36 9.36 0 013.56 140a9.5 9.5 0 0113.37-.87c10.22 8.89 15.55 28.03 16.52 31.78a9.4 9.4 0 01-6.82 11.44 9.5 9.5 0 01-11.55-6.77z"/>
  </g>
  <defs>
    <clipPath id="clip0">
      <path fill="#fff" d="M0 0h455v472H0z"/>
    </clipPath>
  </defs>
</svg>
